<svg width="669" height="619" viewBox="0 0 669 619" fill="none" xmlns="http://www.w3.org/2000/svg">
    <path
        d="M458.578 75.334C473.744 78.0612 486.183 86.237 495.907 99.8613C504.462 111.932 510.296 127.116 513.403 145.412C516.13 162.155 515.926 178.892 512.819 195.635C508.153 223.275 498.821 246.441 484.823 265.129C468.097 287.712 447.103 299 421.828 299C415.603 299 408.805 297.055 401.412 293.16C396.355 290.048 390.719 288.488 384.494 288.488C378.269 288.488 372.639 290.048 367.576 293.16C360.183 297.055 353.385 299 347.16 299C321.885 299 300.891 287.712 284.166 265.129C270.168 246.441 260.835 223.275 256.169 195.635C253.063 178.892 252.858 162.155 255.585 145.412C258.692 127.116 264.526 111.932 273.082 99.8613C282.805 86.237 295.244 78.0612 310.41 75.334C319.742 73.7747 332.572 75.1413 348.906 79.4219C362.904 83.317 374.765 87.9889 384.488 93.4375C394.212 87.9889 406.072 83.317 420.07 79.4219C436.41 75.1413 449.246 73.7747 458.578 75.334ZM426.494 51.3906C421.052 56.4538 413.851 60.1504 404.91 62.4863C398.685 64.431 391.887 65.4062 384.494 65.4062L375.746 64.8223C374.969 59.3737 374.969 53.1426 375.746 46.1348C377.305 32.1191 381.773 21.4147 389.16 14.0156C394.603 8.95248 401.803 5.25586 410.744 2.91992C416.969 0.975254 423.767 0 431.16 0L439.908 0.583984L440.492 9.34375C440.492 16.7428 439.517 23.5521 437.578 29.7832C435.248 38.7357 431.557 45.9421 426.494 51.3906Z"
        fill="#BC0808" />
    <path
        d="M613.39 384.314L668.295 183.221C672.259 168.701 659.001 154.875 641.114 154.875H184.913L174.268 111.553C171.615 100.755 160.2 93 146.958 93H27.875C12.4799 93 0 103.388 0 116.203V131.672C0 144.487 12.4799 154.875 27.875 154.875H109.041L190.631 486.907C171.112 496.251 157.958 513.771 157.958 533.859C157.958 563.76 187.078 588 223 588C258.922 588 288.042 563.76 288.042 533.859C288.042 518.706 280.554 505.015 268.501 495.188H511.998C499.946 505.015 492.458 518.706 492.458 533.859C492.458 563.76 521.579 588 557.5 588C593.422 588 622.542 563.76 622.542 533.859C622.542 512.424 607.573 493.9 585.864 485.128L592.272 461.658C596.236 447.139 582.978 433.312 565.09 433.312H253.334L245.732 402.375H586.208C599.223 402.375 610.506 394.878 613.39 384.314Z"
        fill="#15553E" />
</svg>