<svg width="1762" height="619" viewBox="0 0 1762 619" fill="none" xmlns="http://www.w3.org/2000/svg">
    <path
        d="M458.578 75.334C473.744 78.0612 486.183 86.237 495.907 99.8613C504.462 111.932 510.296 127.116 513.403 145.412C516.13 162.155 515.926 178.892 512.819 195.635C508.153 223.275 498.821 246.441 484.823 265.129C468.097 287.712 447.103 299 421.828 299C415.603 299 408.805 297.055 401.412 293.16C396.355 290.048 390.719 288.488 384.494 288.488C378.269 288.488 372.639 290.048 367.576 293.16C360.183 297.055 353.385 299 347.16 299C321.885 299 300.891 287.712 284.166 265.129C270.168 246.441 260.835 223.275 256.169 195.635C253.063 178.892 252.858 162.155 255.585 145.412C258.692 127.116 264.526 111.932 273.082 99.8613C282.805 86.237 295.244 78.0612 310.41 75.334C319.742 73.7747 332.572 75.1413 348.906 79.4219C362.904 83.3171 374.765 87.9889 384.488 93.4375C394.212 87.9889 406.072 83.3171 420.07 79.4219C436.41 75.1413 449.246 73.7747 458.578 75.334ZM426.494 51.3906C421.052 56.4538 413.851 60.1504 404.91 62.4863C398.685 64.431 391.887 65.4062 384.494 65.4062L375.746 64.8223C374.969 59.3737 374.969 53.1426 375.746 46.1348C377.305 32.1191 381.773 21.4147 389.16 14.0156C394.603 8.95248 401.803 5.25586 410.744 2.91992C416.969 0.975254 423.767 0 431.16 0L439.908 0.583984L440.492 9.34375C440.492 16.7428 439.517 23.5521 437.578 29.7832C435.248 38.7357 431.557 45.9421 426.494 51.3906Z"
        fill="#BC0808" />
    <path
        d="M613.39 384.314L668.295 183.221C672.259 168.701 659.001 154.875 641.114 154.875H184.913L174.268 111.553C171.615 100.755 160.2 93 146.958 93H27.875C12.4799 93 0 103.388 0 116.203V131.672C0 144.487 12.4799 154.875 27.875 154.875H109.041L190.631 486.907C171.112 496.251 157.958 513.771 157.958 533.859C157.958 563.76 187.078 588 223 588C258.922 588 288.042 563.76 288.042 533.859C288.042 518.706 280.554 505.015 268.501 495.188H511.998C499.946 505.015 492.458 518.706 492.458 533.859C492.458 563.76 521.579 588 557.5 588C593.422 588 622.542 563.76 622.542 533.859C622.542 512.424 607.573 493.9 585.864 485.128L592.272 461.658C596.236 447.139 582.978 433.312 565.09 433.312H253.334L245.732 402.375H586.208C599.223 402.375 610.506 394.878 613.39 384.314Z"
        fill="#15553E" />
    <path
        d="M787.6 373.4C775.333 373.4 764.933 371.333 756.4 367.2C747.867 362.933 740.6 357.467 734.6 350.8L754.6 330.6C764.067 341.267 775.733 346.6 789.6 346.6C797.067 346.6 802.6 345.067 806.2 342C809.8 338.933 811.6 334.867 811.6 329.8C811.6 325.933 810.533 322.733 808.4 320.2C806.267 317.533 801.933 315.733 795.4 314.8L781.6 313C766.8 311.133 755.933 306.667 749 299.6C742.2 292.533 738.8 283.133 738.8 271.4C738.8 265.133 740 259.4 742.4 254.2C744.8 249 748.2 244.533 752.6 240.8C757.133 237.067 762.6 234.2 769 232.2C775.533 230.067 782.933 229 791.2 229C801.733 229 811 230.667 819 234C827 237.333 833.867 242.2 839.6 248.6L819.4 269C816.067 265.133 812 262 807.2 259.6C802.533 257.067 796.6 255.8 789.4 255.8C782.6 255.8 777.533 257 774.2 259.4C770.867 261.8 769.2 265.133 769.2 269.4C769.2 274.2 770.467 277.667 773 279.8C775.667 281.933 779.933 283.467 785.8 284.4L799.6 286.6C814 288.867 824.667 293.333 831.6 300C838.533 306.533 842 315.867 842 328C842 334.667 840.8 340.8 838.4 346.4C836 352 832.467 356.8 827.8 360.8C823.267 364.8 817.6 367.933 810.8 370.2C804 372.333 796.267 373.4 787.6 373.4ZM865.605 223H895.205V283.8H896.405C898.271 278.333 901.538 273.6 906.205 269.6C910.871 265.6 917.338 263.6 925.605 263.6C936.405 263.6 944.538 267.2 950.005 274.4C955.605 281.6 958.405 291.867 958.405 305.2V371H928.805V307.6C928.805 300.8 927.738 295.8 925.605 292.6C923.471 289.267 919.671 287.6 914.205 287.6C911.805 287.6 909.471 287.933 907.205 288.6C904.938 289.133 902.871 290.067 901.005 291.4C899.271 292.733 897.871 294.4 896.805 296.4C895.738 298.267 895.205 300.467 895.205 303V371H865.605V223ZM1027.35 373.4C1019.61 373.4 1012.68 372.133 1006.55 369.6C1000.55 367.067 995.412 363.4 991.145 358.6C987.012 353.8 983.812 348 981.545 341.2C979.279 334.4 978.145 326.8 978.145 318.4C978.145 310 979.279 302.4 981.545 295.6C983.812 288.8 987.012 283.067 991.145 278.4C995.412 273.6 1000.55 269.933 1006.55 267.4C1012.68 264.867 1019.61 263.6 1027.35 263.6C1035.08 263.6 1041.95 264.867 1047.95 267.4C1054.08 269.933 1059.21 273.6 1063.35 278.4C1067.61 283.067 1070.88 288.8 1073.15 295.6C1075.41 302.4 1076.55 310 1076.55 318.4C1076.55 326.8 1075.41 334.4 1073.15 341.2C1070.88 348 1067.61 353.8 1063.35 358.6C1059.21 363.4 1054.08 367.067 1047.95 369.6C1041.95 372.133 1035.08 373.4 1027.35 373.4ZM1027.35 350C1033.21 350 1037.75 348.2 1040.95 344.6C1044.15 341 1045.75 335.867 1045.75 329.2V307.8C1045.75 301.133 1044.15 296 1040.95 292.4C1037.75 288.8 1033.21 287 1027.35 287C1021.48 287 1016.95 288.8 1013.75 292.4C1010.55 296 1008.95 301.133 1008.95 307.8V329.2C1008.95 335.867 1010.55 341 1013.75 344.6C1016.95 348.2 1021.48 350 1027.35 350ZM1097.64 266H1127.24V283.6H1128.24C1129.7 277.733 1133.04 272.933 1138.24 269.2C1143.57 265.467 1149.64 263.6 1156.44 263.6C1169.77 263.6 1179.84 268.267 1186.64 277.6C1193.44 286.933 1196.84 300.533 1196.84 318.4C1196.84 336.267 1193.44 349.933 1186.64 359.4C1179.84 368.733 1169.77 373.4 1156.44 373.4C1152.97 373.4 1149.7 372.867 1146.64 371.8C1143.57 370.867 1140.77 369.533 1138.24 367.8C1135.84 365.933 1133.77 363.8 1132.04 361.4C1130.3 358.867 1129.04 356.2 1128.24 353.4H1127.24V411H1097.64V266ZM1146.64 349.4C1152.24 349.4 1156.84 347.467 1160.44 343.6C1164.17 339.6 1166.04 334.267 1166.04 327.6V309.4C1166.04 302.733 1164.17 297.467 1160.44 293.6C1156.84 289.6 1152.24 287.6 1146.64 287.6C1141.04 287.6 1136.37 289 1132.64 291.8C1129.04 294.467 1127.24 298.2 1127.24 303V334C1127.24 338.8 1129.04 342.6 1132.64 345.4C1136.37 348.067 1141.04 349.4 1146.64 349.4ZM1277.32 373.4C1267.85 373.4 1259.32 371.933 1251.72 369C1244.12 365.933 1237.65 361.467 1232.32 355.6C1226.98 349.6 1222.85 342.2 1219.92 333.4C1216.98 324.467 1215.52 314.067 1215.52 302.2C1215.52 290.467 1216.98 280.067 1219.92 271C1222.85 261.8 1226.98 254.133 1232.32 248C1237.65 241.733 1244.12 237 1251.72 233.8C1259.32 230.6 1267.85 229 1277.32 229C1290.25 229 1300.92 231.667 1309.32 237C1317.72 242.2 1324.45 250.467 1329.52 261.8L1303.32 275.4C1301.45 269.533 1298.52 264.867 1294.52 261.4C1290.65 257.8 1284.92 256 1277.32 256C1268.38 256 1261.18 258.933 1255.72 264.8C1250.38 270.533 1247.72 278.933 1247.72 290V312.4C1247.72 323.467 1250.38 331.933 1255.72 337.8C1261.18 343.533 1268.38 346.4 1277.32 346.4C1284.78 346.4 1290.72 344.4 1295.12 340.4C1299.65 336.267 1302.98 331.333 1305.12 325.6L1329.92 340C1324.72 350.667 1317.85 358.933 1309.32 364.8C1300.92 370.533 1290.25 373.4 1277.32 373.4ZM1427.19 371C1421.86 371 1417.39 369.333 1413.79 366C1410.32 362.667 1408.12 358.2 1407.19 352.6H1405.99C1404.39 359.4 1400.86 364.6 1395.39 368.2C1389.92 371.667 1383.19 373.4 1375.19 373.4C1364.66 373.4 1356.59 370.6 1350.99 365C1345.39 359.4 1342.59 352 1342.59 342.8C1342.59 331.733 1346.59 323.533 1354.59 318.2C1362.72 312.733 1373.72 310 1387.59 310H1404.19V303.4C1404.19 298.333 1402.86 294.333 1400.19 291.4C1397.52 288.333 1393.06 286.8 1386.79 286.8C1380.92 286.8 1376.26 288.067 1372.79 290.6C1369.32 293.133 1366.46 296 1364.19 299.2L1346.59 283.6C1350.86 277.333 1356.19 272.467 1362.59 269C1369.12 265.4 1377.92 263.6 1388.99 263.6C1403.92 263.6 1415.12 266.867 1422.59 273.4C1430.06 279.933 1433.79 289.467 1433.79 302V348H1443.59V371H1427.19ZM1386.19 352.8C1391.12 352.8 1395.32 351.733 1398.79 349.6C1402.39 347.467 1404.19 344 1404.19 339.2V326.8H1389.79C1378.19 326.8 1372.39 330.733 1372.39 338.6V341.6C1372.39 345.467 1373.59 348.333 1375.99 350.2C1378.39 351.933 1381.79 352.8 1386.19 352.8ZM1463.46 371V266H1493.06V288.8H1494.06C1494.59 285.867 1495.52 283.067 1496.86 280.4C1498.19 277.6 1499.92 275.133 1502.06 273C1504.32 270.867 1506.99 269.2 1510.06 268C1513.12 266.667 1516.72 266 1520.86 266H1526.06V293.6H1518.66C1509.99 293.6 1503.52 294.733 1499.26 297C1495.12 299.267 1493.06 303.467 1493.06 309.6V371H1463.46ZM1581.9 371C1571.63 371 1563.83 368.4 1558.5 363.2C1553.3 358 1550.7 350.4 1550.7 340.4V289H1535.9V266H1543.3C1547.3 266 1550.03 265.067 1551.5 263.2C1552.96 261.2 1553.7 258.4 1553.7 254.8V237.6H1580.3V266H1601.1V289H1580.3V348H1599.5V371H1581.9Z"
        fill="#095550" />
</svg>